<svg id="Layer_1" data-name="Layer 1" xmlns="http://www.w3.org/2000/svg" viewBox="0 0 144 144"><defs><style>.cls-1{fill:#00ff40;}</style></defs><path class="cls-1" d="M57.46,20.72v3.05H70.32V45.9h15.2V52H70.32v6.09H80.45v6.09H70.32v6.09h15.2v6.09H70.32v35.89c0,.84,0,1.79-.07,2.86a9,9,0,0,1-.63,3,5.37,5.37,0,0,1-1.74,2.3,5.8,5.8,0,0,1-3.56.91c-.38,0-.91,0-1.62-.07a5.06,5.06,0,0,1-2-.56,4.7,4.7,0,0,1-1.75-1.6,5.61,5.61,0,0,1-.77-3.22,11.44,11.44,0,0,1,.28-2c.19-.93.42-2,.7-3.07s.51-2.19.69-3.21a13.65,13.65,0,0,0,.29-2.52,6.29,6.29,0,0,0-.91-3.57,6.09,6.09,0,0,0-2.24-2,8.47,8.47,0,0,0-2.79-.91,18.54,18.54,0,0,0-2.59-.21,12.69,12.69,0,0,0-6.43,1.33,9.55,9.55,0,0,0-3.28,3A7.41,7.41,0,0,0,40.69,106c-.09,1.07-.13,1.84-.13,2.3a12.41,12.41,0,0,0,2.09,7.41A14.85,14.85,0,0,0,48,120.34a23.23,23.23,0,0,0,7.13,2.31,47.44,47.44,0,0,0,7.54.63q10.35,0,16-3.49A23,23,0,0,0,87,111.47a25.45,25.45,0,0,0,3.15-10c.32-3.44.49-6.33.49-8.66v-69h12.85V20.72Z"/></svg>